<?xml version="1.0" encoding="utf-8"?>
<!-- Generator: Adobe Illustrator 27.9.1, SVG Export Plug-In . SVG Version: 6.00 Build 0)  -->
<svg version="1.1" id="Calque_1" xmlns="http://www.w3.org/2000/svg" xmlns:xlink="http://www.w3.org/1999/xlink" x="0px" y="0px"
	 viewBox="0 0 500 500" style="enable-background:new 0 0 500 500;" xml:space="preserve">
<style type="text/css">
	.st0{fill:none;stroke:#000000;stroke-width:31;stroke-linecap:round;stroke-miterlimit:10;}
	.st1{stroke:#000000;stroke-width:15;stroke-linecap:round;stroke-linejoin:round;stroke-miterlimit:10;}
	.st2{stroke:#000000;stroke-width:18;stroke-linecap:round;stroke-miterlimit:10;}
	.st3{stroke:#000000;stroke-width:3;stroke-linecap:round;stroke-linejoin:round;stroke-miterlimit:10;}
</style>
<g>
	<path class="st0" d="M323.12,377.46c-52.48,0-104.96,0-157.44,0c-56.63-0.59-101.97-47.94-100.56-103.04
		c1.36-53.22,45.9-97.33,100.56-97.87c66.22,0.48,132.44,0.95,198.66,1.43"/>
	<polygon class="st1" points="106.51,362.94 96.3,424.88 142.16,381.08 	"/>
	<circle class="st2" cx="331.59" cy="343.57" r="40.39"/>
	<polygon class="st3" points="352.98,350.56 352.98,75.12 378.84,114.5 378.84,350.56 	"/>
	<g>
		<path d="M378.79,111.6c3.19,4.28,46.33,60.31,47.92,62.77c8.66,12.82,12.85,29.19,9.66,44.39c-1.22,5.89-3.46,11.45-6.44,16.44
			c6.87-18.68,1.35-39.48-12.73-53.11c-1.08-1.16-55.68-48.52-58.82-51.32c-5.86-5.1-6.47-13.99-1.37-19.85
			C362.7,104.21,373.54,104.58,378.79,111.6L378.79,111.6z"/>
	</g>
</g>
</svg>
